<?xml version="1.0" standalone="no"?>
<!DOCTYPE svg PUBLIC "-//W3C//DTD SVG 20010904//EN"
 "http://www.w3.org/TR/2001/REC-SVG-20010904/DTD/svg10.dtd">
<svg version="1.0" xmlns="http://www.w3.org/2000/svg"
 width="1210.000000pt" height="1280.000000pt" viewBox="0 0 1210.000000 1280.000000"
 preserveAspectRatio="xMidYMid meet">
<metadata>
Created by potrace 1.15, written by Peter Selinger 2001-2017
</metadata>
<g transform="translate(0.000000,1280.000000) scale(0.100000,-0.100000)"
fill="#000000" stroke="none">
<path d="M6135 12791 c3 -6 -32 -7 -87 -4 -100 6 -276 -11 -538 -52 -85 -14
-177 -25 -205 -25 -53 0 -123 -27 -192 -74 -26 -18 -51 -26 -81 -26 -87 0
-359 -46 -382 -65 -8 -7 -60 -20 -115 -30 -200 -34 -479 -131 -860 -298 -153
-67 -704 -340 -667 -331 28 7 28 -3 -2 -47 -18 -26 -40 -41 -83 -57 -197 -72
-580 -348 -868 -624 -98 -95 -109 -108 -98 -126 10 -17 2 -27 -78 -92 -54 -44
-86 -76 -79 -80 7 -5 6 -11 -6 -21 -17 -14 -293 -319 -425 -469 -161 -184
-320 -402 -375 -515 -14 -27 -18 -41 -9 -30 72 94 92 116 108 121 10 3 20 4
22 2 2 -2 -21 -43 -51 -92 -165 -264 -467 -827 -457 -853 2 -6 -28 -78 -66
-159 -62 -129 -69 -149 -57 -163 12 -14 10 -26 -15 -90 -16 -40 -68 -193 -115
-340 -48 -146 -88 -270 -91 -275 -3 -4 -9 -2 -14 5 -6 10 -9 5 -9 -14 0 -19 4
-26 11 -21 18 11 4 -62 -62 -331 -63 -257 -86 -377 -95 -489 l-5 -71 20 40
c17 36 20 38 21 15 5 -65 -3 -114 -20 -132 -20 -21 -40 -117 -40 -189 0 -76
-20 -173 -41 -202 -20 -27 -20 -28 -1 -162 l18 -134 -23 -30 c-22 -28 -22 -30
-6 -72 17 -47 21 -149 14 -394 -2 -71 0 -160 4 -198 7 -60 9 -65 21 -50 12 16
13 12 14 -33 0 -28 2 -87 5 -130 6 -75 5 -78 -9 -49 l-15 30 5 -40 c11 -77 73
-375 94 -454 12 -45 26 -81 32 -81 11 0 6 44 -11 84 -19 47 -63 326 -50 326 9
0 11 -5 65 -164 25 -71 51 -138 59 -150 17 -23 21 -91 5 -81 -13 8 -13 -15 0
-35 8 -12 10 -12 10 5 0 19 0 19 18 0 12 -13 28 -67 45 -155 24 -122 55 -231
172 -605 26 -84 38 -143 40 -197 2 -42 8 -85 14 -95 8 -14 9 -3 5 42 -7 70 -2
66 52 -39 l36 -69 -22 -17 -23 -17 83 -162 c45 -89 84 -160 86 -158 2 2 0 41
-4 86 -7 72 -6 81 6 65 22 -29 105 -197 209 -423 127 -277 239 -481 263 -481
18 0 100 -93 225 -256 161 -210 249 -310 333 -380 71 -58 95 -64 45 -11 -108
116 -83 107 37 -13 80 -80 183 -177 230 -216 47 -38 159 -131 249 -205 252
-207 256 -213 51 -65 -180 128 -259 190 -447 344 -91 75 -177 146 -192 156
l-26 19 25 -25 c78 -80 512 -485 605 -566 137 -118 273 -222 401 -305 94 -61
260 -157 272 -157 3 0 -9 16 -28 35 -64 66 -4 53 84 -19 30 -24 117 -79 193
-122 76 -43 148 -89 160 -102 24 -26 89 -46 208 -61 63 -9 98 -21 165 -57 192
-102 475 -237 504 -240 17 -1 191 -35 386 -73 848 -170 1164 -215 1595 -228
304 -9 594 15 898 73 106 20 135 29 127 39 -8 9 11 13 85 18 67 4 99 10 111
21 8 9 20 16 26 16 5 0 38 13 72 29 33 16 111 39 171 51 250 49 555 127 555
142 0 25 -75 31 -138 12 -13 -4 -12 -2 2 7 11 6 116 45 235 86 310 106 387
136 367 142 -10 4 17 19 74 41 73 28 89 38 84 52 -4 13 9 24 55 48 94 47 220
123 421 253 102 67 222 142 268 168 81 45 83 47 56 56 -26 9 -22 13 99 87 70
43 127 80 127 83 0 3 -20 -7 -45 -21 -25 -15 -45 -25 -45 -23 0 2 44 40 98 84
193 159 695 622 741 684 19 25 19 28 4 22 -16 -6 -16 -4 2 18 10 13 42 48 70
78 28 30 40 48 28 42 -12 -6 -24 -11 -28 -11 -3 0 28 42 68 93 197 248 281
384 537 862 62 116 139 259 172 318 33 59 58 110 55 113 -2 3 -21 -23 -40 -58
-20 -35 -36 -57 -37 -51 0 20 85 205 130 283 23 39 40 74 37 76 -2 3 -30 -35
-62 -83 l-56 -88 6 45 c3 25 13 55 21 68 13 19 13 22 -1 22 -42 0 10 121 76
175 38 32 50 49 58 83 5 24 7 51 4 61 -6 25 23 132 55 199 l26 57 6 -75 5 -75
28 73 c56 142 54 131 87 617 6 88 20 210 31 270 22 118 36 315 23 315 -4 0
-19 -10 -32 -22 l-25 -23 6 65 c3 36 9 81 12 100 l5 35 -15 -40 c-14 -38 -14
-38 -10 -7 27 191 39 431 39 817 1 349 -2 441 -16 545 -39 273 -84 550 -114
687 -27 125 -28 137 -15 128 5 -3 -3 32 -19 77 -47 136 -91 309 -88 347 l3 36
17 -25 c9 -14 28 -63 42 -110 32 -108 32 -94 1 83 -39 219 -64 323 -105 437
-42 117 -114 280 -105 238 3 -16 3 -28 -1 -28 -7 0 -91 178 -209 446 -53 121
-119 262 -147 314 -38 73 -45 90 -26 73 26 -25 38 -29 38 -13 0 15 -235 345
-386 542 -268 348 -593 694 -861 918 -64 54 -126 117 -169 173 -58 77 -70 88
-91 82 -40 -10 -167 87 -168 128 0 20 -21 41 -108 106 -95 71 -152 101 -196
101 -8 0 -34 11 -58 25 -23 14 -43 24 -43 21 0 -3 61 -53 135 -111 74 -59 135
-110 135 -115 0 -24 -23 -15 -81 32 -127 101 -266 193 -635 418 -134 82 -231
154 -238 178 -5 13 -48 34 -149 72 -550 205 -1176 366 -1672 429 -278 36 -594
53 -580 32z m634 -155 c58 -17 107 -37 109 -45 4 -11 -4 -13 -34 -8 -133 21
-311 29 -544 23 -140 -3 -272 -9 -292 -12 -23 -4 -38 -2 -38 4 0 5 58 13 135
17 74 4 133 11 130 15 -3 5 -51 12 -108 16 -83 6 -96 9 -72 16 37 11 198 3
325 -17 112 -17 206 -19 215 -5 4 6 1 18 -6 27 -12 14 -9 15 31 8 25 -4 92
-21 149 -39z m-842 -12 c-3 -3 -12 -4 -19 -1 -8 3 -5 6 6 6 11 1 17 -2 13 -5z
m1273 -104 c95 -20 345 -99 337 -106 -2 -2 -53 7 -113 20 -60 14 -182 39 -271
55 -90 16 -171 34 -180 40 -32 19 125 12 227 -9z m-1800 4 c-36 -9 -305 -52
-308 -49 -3 2 56 17 203 48 25 6 126 6 105 1z m2830 -160 c14 -7 20 -13 14
-14 -15 0 -84 29 -84 36 0 7 38 -5 70 -22z m-4760 -288 c0 -4 -100 -66 -107
-66 -3 0 2 10 13 22 14 15 15 20 4 16 -8 -3 -26 -8 -40 -12 -20 -5 -19 -3 5 8
17 8 48 18 70 24 51 12 55 13 55 8z m-150 -120 c0 -2 -21 -16 -47 -32 -27 -15
-106 -65 -177 -111 -71 -46 -131 -82 -133 -79 -8 8 119 96 235 163 100 58 122
69 122 59z m-420 -410 c0 -12 -66 -46 -90 -46 -21 0 -8 17 28 38 43 25 62 28
62 8z m6740 -112 c276 -197 551 -460 834 -796 84 -101 43 -63 -85 78 -68 74
-187 194 -264 266 -77 72 -166 161 -197 198 -53 62 -175 170 -194 170 -4 0 -3
-5 4 -12 7 -7 12 -16 12 -20 0 -12 -161 116 -210 168 -54 57 -47 53 100 -52z
m-7819 -631 c-86 -102 -139 -158 -144 -153 -6 5 170 200 180 200 3 0 -13 -21
-36 -47z m8992 -468 c21 -33 33 -44 35 -33 2 12 17 2 53 -38 64 -71 107 -138
167 -261 57 -118 59 -125 33 -93 -28 34 -26 23 10 -57 43 -93 81 -195 75 -200
-2 -2 -23 31 -47 74 -24 43 -111 188 -195 323 -83 135 -170 281 -194 325 l-43
80 37 -35 c20 -19 51 -57 69 -85z m-9434 -94 c-22 -59 -45 -97 -79 -134 -26
-29 -51 -50 -54 -47 -3 3 32 65 77 137 45 73 83 130 85 129 1 -2 -12 -40 -29
-85z m10174 -1223 c89 -191 151 -356 145 -386 -2 -9 -21 29 -42 86 -21 56 -41
100 -44 98 -2 -3 1 -19 7 -37 22 -64 4 -38 -24 33 -15 40 -54 132 -86 204 -56
129 -63 149 -60 189 2 31 12 12 104 -187z m97 -323 c0 -5 -5 -3 -10 5 -5 8
-10 20 -10 25 0 6 5 3 10 -5 5 -8 10 -19 10 -25z m117 -357 c-3 -7 -5 -2 -5
12 0 14 2 19 5 13 2 -7 2 -19 0 -25z m-11372 -2988 c9 -52 19 -105 22 -118 5
-21 4 -22 -20 -11 -25 11 -26 13 -24 120 1 59 2 107 3 106 2 -1 10 -45 19 -97z
m245 -1640 c11 -21 20 -47 20 -57 -1 -16 -16 12 -41 75 -14 36 -1 25 21 -18z
m9951 -1688 c-17 -32 -97 -100 -149 -126 -27 -14 -63 -37 -81 -51 -53 -46 -34
-11 27 47 32 31 80 67 108 81 27 14 60 34 74 46 31 25 33 26 21 3z m-336 -243
c-33 -33 -78 -75 -100 -92 l-40 -32 23 32 c27 38 152 153 167 153 5 0 -17 -27
-50 -61z m-5975 -1343 c83 -24 180 -68 180 -82 0 -5 -71 5 -125 18 -40 10
-190 91 -201 110 -3 5 7 3 22 -5 16 -8 72 -27 124 -41z m3166 37 c-4 -4 -40
-19 -81 -34 -56 -19 -84 -24 -117 -19 l-43 6 60 13 c33 7 85 19 115 26 69 16
75 17 66 8z m-2815 -34 c31 -11 149 -78 149 -85 0 -1 -17 0 -37 3 -60 9 -29
-12 66 -47 99 -35 113 -45 51 -35 -59 9 -262 74 -275 87 -7 8 -5 9 6 5 9 -3
38 -8 65 -12 l49 -6 -25 21 c-14 11 -36 30 -50 43 -14 12 -32 25 -40 29 -25
11 5 9 41 -3z m1914 -404 c20 -7 -171 -2 -200 5 -16 3 20 5 80 3 61 -3 115 -6
120 -8z"/>
<path d="M10921 10140 c18 -32 35 -57 37 -55 5 4 -57 115 -64 115 -3 0 9 -27
27 -60z"/>
<path d="M550 8929 c-7 -11 -10 -23 -7 -25 2 -2 9 7 15 21 14 30 7 33 -8 4z"/>
<path d="M12011 7413 c0 -34 4 -65 9 -68 12 -7 12 34 1 90 -8 38 -9 37 -10
-22z"/>
<path d="M12081 7294 c1 -32 5 -70 9 -84 5 -15 6 7 3 55 -7 96 -13 112 -12 29z"/>
</g>
</svg>
